<svg width="100" height="82" viewBox="0 0 100 82" fill="none" xmlns="http://www.w3.org/2000/svg">
<path d="M99.444 37.7278C98.4883 43.8146 96.7779 48.9958 94.3131 53.2717C91.8482 57.5475 88.9557 60.1884 85.6357 61.1945C83.4726 61.8485 81.7371 61.7982 80.4292 61.0436C79.1213 60.289 77.9895 58.956 77.0337 57.0445L76.7319 78.0211L67.7527 81.1903L64.4326 20.5994L78.0146 15.5438L77.8637 24.3722C80.4795 20.7 82.8186 18.2099 84.8811 16.902C86.9436 15.5941 89.333 14.9905 92.0494 15.0911C94.967 15.1414 97.1552 17.4302 98.614 21.9576C100.123 26.4849 100.4 31.7417 99.444 37.7278ZM87.9748 42.1797C88.5281 39.8154 88.83 37.1996 88.8803 34.3323C88.9306 31.4147 88.6036 28.8492 87.8993 26.6358C87.1951 24.3722 86.2645 23.4667 85.1075 23.9194C83.1959 24.674 81.7371 26.3088 80.731 28.824C79.725 31.3392 78.9704 35.0366 78.4674 39.916C78.2159 42.4312 78.2913 45.0973 78.6937 47.9143C79.0962 50.681 79.9262 52.165 81.1838 52.3662C82.542 52.6177 83.7241 51.8883 84.7302 50.178C85.7866 48.4174 86.8681 45.7513 87.9748 42.1797Z" fill="white"/>
<path d="M62.1348 62.4018L50.741 65.5709C50.3386 63.3576 50.1122 60.943 50.0619 58.3272C47.9995 61.1945 45.5597 62.93 42.7427 63.5336C39.976 64.1876 37.2093 63.4582 34.4426 61.3454C32.4808 59.786 31.1226 58.0757 30.368 56.2144C29.6134 54.3532 29.3116 52.6932 29.4625 51.2344C29.6134 49.7252 30.0159 47.7885 30.6698 45.4243C31.525 42.4563 32.8832 40.2933 34.7444 38.9351C36.6057 37.5266 39.0203 36.4199 41.9882 35.615C44.5034 34.9611 46.6161 33.9047 48.3265 32.4459C50.0368 30.9871 51.0177 29.478 51.2692 27.9186C52.0741 23.1397 51.5962 20.8257 49.8356 20.9766C48.4774 21.1275 46.9682 22.5109 45.3082 25.1267C44.0506 27.0382 43.3212 28.7989 43.12 30.4086L33.0844 27.3904C35.0966 22.5612 37.7878 19.216 41.1582 17.3548C44.5285 15.4935 48.251 15.242 52.3256 16.6002C56.4505 18.0087 59.1669 20.0712 60.4748 22.7876C61.7827 25.504 61.9336 29.654 60.9275 35.2378C60.2233 40.4693 60.0221 45.3991 60.3239 50.0271C60.6257 54.655 61.2294 58.7799 62.1348 62.4018ZM50.5901 36.6714C48.1755 37.1745 45.7861 38.8345 43.4218 41.6515C41.0576 44.4685 40.1772 47.2855 40.7809 50.1025C41.1833 51.9135 41.787 53.1459 42.5918 53.7999C43.447 54.4035 44.3273 54.5041 45.2328 54.1017C46.1382 53.6992 47.0186 52.9447 47.8737 51.838C48.578 50.8822 49.081 49.5492 49.3828 47.8389C49.6847 46.0782 49.911 44.0409 50.0619 41.7269C50.2128 39.413 50.3889 37.7278 50.5901 36.6714Z" fill="white"/>
<path d="M38.7842 5.13099C34.2066 12.6262 29.5535 21.9324 24.8249 33.0496C20.1467 44.1164 16.3487 55.8372 13.4311 68.2119L0.301823 61.0436C0.754557 59.4339 1.20729 57.9499 1.66002 56.5917C2.11276 55.2335 2.59064 53.8502 3.09368 52.4417C3.64702 51.0332 4.07461 49.9013 4.37643 49.0462C4.72855 48.1407 5.23159 46.9334 5.88554 45.4243C6.58979 43.8649 7.06768 42.7582 7.3192 42.1043C7.62102 41.4503 8.19952 40.1676 9.05468 38.256C9.96015 36.3445 10.5638 35.0366 10.8656 34.3323C10.6644 33.9299 10.0608 32.622 9.05468 30.4086C8.0486 28.1953 7.21859 26.4095 6.56464 25.0513C5.961 23.6428 5.18129 21.857 4.22552 19.6939C3.32005 17.5309 2.51519 15.4684 1.81094 13.5066C1.10668 11.5447 0.503038 9.70863 0 7.9983L12.9029 0.603647C13.1041 2.96792 13.6072 5.75978 14.412 8.97923C15.2672 12.1987 16.0469 14.8145 16.7512 16.8266L17.8075 19.8448C18.5621 18.386 20.1467 15.1414 22.5612 10.1111C24.9758 5.03038 26.661 1.66002 27.6168 0L38.7842 5.13099Z" fill="white"/>
</svg>
